<?xml version="1.0" standalone="no"?>
<!DOCTYPE svg PUBLIC "-//W3C//DTD SVG 20010904//EN"
 "http://www.w3.org/TR/2001/REC-SVG-20010904/DTD/svg10.dtd">
<svg version="1.0" xmlns="http://www.w3.org/2000/svg"
 width="225.000000pt" height="225.000000pt" viewBox="0 0 225.000000 225.000000"
 preserveAspectRatio="xMidYMid meet">

<g transform="translate(0.000000,225.000000) scale(0.100000,-0.100000)"
fill="#000000" stroke="none">
<path d="M628 1690 c-120 -21 -227 -100 -281 -209 -30 -61 -32 -73 -32 -166 0
-92 3 -106 32 -167 37 -78 105 -151 178 -189 80 -42 107 -46 50 -6 -176 121
-240 327 -156 503 34 71 69 115 125 154 53 36 151 70 208 71 l43 1 -40 9 c-47
9 -65 9 -127 -1z"/>
<path d="M269 1523 c-33 -83 -40 -115 -46 -183 -14 -181 80 -346 243 -426 65
-32 83 -37 166 -40 l93 -4 -66 18 c-73 20 -150 57 -204 98 -51 38 -120 135
-145 201 -29 79 -44 211 -32 296 4 37 7 67 5 67 -2 0 -8 -12 -14 -27z"/>
</g>
</svg>
